<svg width="35" height="60" viewBox="0 0 35 60" fill="none" xmlns="http://www.w3.org/2000/svg">
<path fill-rule="evenodd" clip-rule="evenodd" d="M32.9681 1.25122C33.7693 2.05342 34.2194 3.14083 34.2194 4.2746C34.2194 5.40836 33.7693 6.49578 32.9681 7.29797L10.3213 29.9448L32.9681 52.5915C33.3885 52.9832 33.7256 53.4556 33.9595 53.9804C34.1933 54.5052 34.319 55.0717 34.3292 55.6462C34.3393 56.2206 34.2336 56.7912 34.0185 57.324C33.8033 57.8567 33.483 58.3406 33.0767 58.7469C32.6705 59.1532 32.1865 59.4734 31.6538 59.6886C31.1211 59.9038 30.5505 60.0095 29.976 59.9993C29.4016 59.9892 28.835 59.8635 28.3102 59.6296C27.7854 59.3958 27.3131 59.0586 26.9214 58.6383L1.25122 32.9681C0.450023 32.1659 0 31.0785 0 29.9448C0 28.811 0.450023 27.7236 1.25122 26.9214L26.9214 1.25122C27.7236 0.450024 28.811 0 29.9448 0C31.0785 0 32.1659 0.450024 32.9681 1.25122Z" fill="black"/>
</svg>
