<svg width="82" height="82" viewBox="0 0 82 82" fill="none" xmlns="http://www.w3.org/2000/svg">
<path fill-rule="evenodd" clip-rule="evenodd" d="M58.3868 9.03876C59.0217 9.51539 59.5469 10.1228 59.9268 10.8199C60.3068 11.517 60.5327 12.2875 60.5892 13.0794C60.6457 13.8713 60.5316 14.6661 60.2545 15.4101C59.9774 16.1541 59.5438 16.8299 58.983 17.3919L57.8749 18.5C57.129 19.2459 56.7099 20.2576 56.7099 21.3125C56.7099 22.3674 57.129 23.3791 57.8749 24.125C58.6208 24.8709 59.6325 25.29 60.6874 25.29C61.7423 25.29 62.754 24.8709 63.4999 24.125L64.608 23.0169C65.0775 22.5494 65.626 22.1685 66.228 21.8919C67.3785 21.3687 68.6731 21.2541 69.8976 21.5672C71.1221 21.8802 72.2029 22.602 72.9611 23.6131L79.953 32.9394C83.1874 37.2481 81.978 43.4131 77.3599 46.1863C64.568 53.862 53.8619 64.5681 46.1861 77.36C45.5312 78.4508 44.6545 79.392 43.6129 80.1227C42.5713 80.8533 41.3878 81.3571 40.1392 81.6016C38.8906 81.846 37.6045 81.8256 36.3643 81.5416C35.124 81.2577 33.9572 80.7165 32.9393 79.9531L23.613 72.9613C22.9781 72.4846 22.4529 71.8772 22.0729 71.1802C21.693 70.4831 21.4671 69.7125 21.4106 68.9206C21.354 68.1287 21.4682 67.3339 21.7453 66.5899C22.0224 65.8459 22.456 65.1701 23.0168 64.6081L24.1249 63.5C24.8708 62.7541 25.2899 61.7424 25.2899 60.6875C25.2899 59.6326 24.8708 58.6209 24.1249 57.875C23.379 57.1291 22.3673 56.71 21.3124 56.71C20.2575 56.71 19.2458 57.1291 18.4999 57.875L17.3918 58.9831C16.9222 59.4506 16.3738 59.8315 15.7718 60.1081C14.6213 60.6313 13.3266 60.7459 12.1022 60.4329C10.8777 60.1198 9.79688 59.398 9.03864 58.3869L2.04676 49.0606C1.2834 48.0427 0.742234 46.8759 0.458275 45.6356C0.174316 44.3954 0.153889 43.1093 0.398315 41.8607C0.642742 40.6121 1.14658 39.4286 1.87723 38.387C2.60787 37.3454 3.54906 36.4687 4.63989 35.8138C17.4318 28.138 28.1379 17.4319 35.8136 4.64001C36.4686 3.54918 37.3452 2.608 38.3869 1.87735C39.4285 1.1467 40.6119 0.642864 41.8606 0.398438C43.1092 0.154011 44.3953 0.174438 45.6355 0.458397C46.8758 0.742356 48.0426 1.28352 49.0605 2.04688L58.3868 9.03876ZM43.998 8.79688L50.7536 13.8594C48.9697 16.2513 48.1066 19.2056 48.3221 22.1817C48.5376 25.1579 49.8174 27.9569 51.9274 30.0669C54.0373 32.1768 56.8364 33.4566 59.8125 33.6722C62.7887 33.8877 65.7429 33.0246 68.1349 31.2406L73.203 38.0019C73.2578 38.0749 73.2966 38.1586 73.317 38.2476C73.3374 38.3366 73.3389 38.4288 73.3214 38.5184C73.3039 38.608 73.2678 38.693 73.2155 38.7677C73.1631 38.8425 73.0956 38.9055 73.0174 38.9525C59.0393 47.3404 47.3403 59.0394 38.9524 73.0175C38.9054 73.0966 38.8422 73.1648 38.767 73.2177C38.6917 73.2707 38.6062 73.3071 38.5159 73.3246C38.4256 73.3421 38.3326 73.3404 38.243 73.3194C38.1534 73.2985 38.0693 73.2589 37.9961 73.2031L31.2461 68.1406C33.0301 65.7487 33.8932 62.7944 33.6777 59.8183C33.4621 56.8422 32.1823 54.0431 30.0724 51.9331C27.9624 49.8232 25.1634 48.5434 22.1872 48.3279C19.2111 48.1123 16.2568 48.9755 13.8649 50.7594L8.79676 43.9981C8.74294 43.9253 8.70489 43.842 8.68502 43.7536C8.66516 43.6652 8.66391 43.5736 8.68138 43.4847C8.69884 43.3958 8.73462 43.3116 8.78644 43.2373C8.83827 43.1629 8.905 43.1002 8.98239 43.0531C22.9632 34.6644 34.6643 22.9633 43.053 8.98251C43.1001 8.90512 43.1628 8.83839 43.2371 8.78657C43.3114 8.73474 43.3957 8.69896 43.4846 8.6815C43.5735 8.66404 43.6651 8.66528 43.7535 8.68514C43.8419 8.70501 43.9251 8.74306 43.998 8.79688ZM38.3561 32.3938C37.9699 31.9793 37.5042 31.6468 36.9867 31.4162C36.4692 31.1857 35.9105 31.0617 35.3441 31.0517C34.7776 31.0417 34.215 31.1459 33.6897 31.3581C33.1643 31.5702 32.6872 31.8861 32.2865 32.2867C31.8859 32.6873 31.5701 33.1645 31.3579 33.6898C31.1458 34.2151 31.0416 34.7777 31.0516 35.3442C31.0616 35.9107 31.1855 36.4693 31.4161 36.9868C31.6467 37.5043 31.9791 37.97 32.3936 38.3563L43.6436 49.6063C44.4434 50.3515 45.5011 50.7572 46.5941 50.7379C47.687 50.7186 48.7298 50.2758 49.5028 49.5029C50.2757 48.7299 50.7185 47.6871 50.7377 46.5942C50.757 45.5013 50.3513 44.4435 49.6061 43.6438L38.3561 32.3938Z" fill="black"/>
</svg>
