<svg width="74" height="75" viewBox="0 0 74 75" fill="none" xmlns="http://www.w3.org/2000/svg">
<path fill-rule="evenodd" clip-rule="evenodd" d="M62.3125 63.9762C64.0394 62.4294 65.125 60.185 65.125 57.6875V32.2456C65.1253 30.9532 64.8288 29.6781 64.2583 28.5185C63.6877 27.3589 62.8584 26.3458 61.8344 25.5575L42.1469 10.415C40.6715 9.27922 38.8619 8.66336 37 8.66336C35.1381 8.66336 33.3285 9.27922 31.8531 10.415L12.1656 25.5575C11.1408 26.3464 10.3111 27.3603 9.74049 28.521C9.16992 29.6816 8.8738 30.9579 8.875 32.2512V57.6875C8.87204 58.793 9.08696 59.8883 9.50747 60.9108C9.92799 61.9332 10.5459 62.8628 11.3258 63.6464C12.1057 64.4299 13.0323 65.0521 14.0528 65.4774C15.0733 65.9027 16.1676 66.1228 17.2731 66.125H20.125V46.4375C20.125 43.4538 21.3103 40.5923 23.42 38.4825C25.5298 36.3727 28.3913 35.1875 31.375 35.1875H42.625C45.6087 35.1875 48.4702 36.3727 50.5799 38.4825C52.6897 40.5923 53.875 43.4538 53.875 46.4375V66.125H56.7269C58.87 66.1137 60.8331 65.3037 62.3125 63.9762ZM73.5625 57.6875C73.5625 62.163 71.7846 66.4552 68.6199 69.6199C65.4553 72.7846 61.163 74.5625 56.6875 74.5625H17.3125C12.837 74.5625 8.54475 72.7846 5.38007 69.6199C2.2154 66.4552 0.4375 62.163 0.4375 57.6875V32.2456C0.437676 29.6618 1.03116 27.1126 2.1722 24.7944C3.31324 22.4763 4.97137 20.4511 7.01875 18.875L26.7063 3.73247C29.657 1.46096 33.2762 0.229248 37 0.229248C40.7238 0.229248 44.343 1.46096 47.2938 3.73247L66.9812 18.875C69.0294 20.4517 70.688 22.4777 71.829 24.797C72.9701 27.1162 73.5632 29.6665 73.5625 32.2512V57.6875ZM45.4375 46.4375C45.4375 45.6916 45.1412 44.9762 44.6137 44.4487C44.0863 43.9213 43.3709 43.625 42.625 43.625H31.375C30.6291 43.625 29.9137 43.9213 29.3863 44.4487C28.8588 44.9762 28.5625 45.6916 28.5625 46.4375V66.125H45.4375V46.4375Z" fill="black"/>
</svg>
