<svg width="68" height="74" viewBox="0 0 68 74" fill="none" xmlns="http://www.w3.org/2000/svg">
<path fill-rule="evenodd" clip-rule="evenodd" d="M34 45.5725L39.49 50.2806L56.2975 64.6806C56.5627 64.907 56.8872 65.0529 57.2326 65.1009C57.578 65.1489 57.93 65.0971 58.2469 64.9517C58.5639 64.8062 58.8326 64.5731 59.0214 64.2799C59.2102 63.9867 59.3112 63.6456 59.3125 63.2969V17.3125C59.3125 15.0747 58.4236 12.9286 56.8412 11.3463C55.2589 9.76395 53.1128 8.875 50.875 8.875H17.125C14.8872 8.875 12.7411 9.76395 11.1588 11.3463C9.57645 12.9286 8.6875 15.0747 8.6875 17.3125V63.2969C8.68771 63.6461 8.78793 63.9879 8.97631 64.282C9.1647 64.576 9.43336 64.81 9.75052 64.9561C10.0677 65.1023 10.4201 65.1545 10.766 65.1067C11.1119 65.0589 11.4369 64.913 11.7025 64.6863L28.51 50.2863L34 45.5725ZM67.75 17.3125C67.75 12.837 65.9721 8.54475 62.8074 5.38007C59.6428 2.2154 55.3505 0.4375 50.875 0.4375H17.125C12.6495 0.4375 8.35725 2.2154 5.19257 5.38007C2.0279 8.54475 0.250001 12.837 0.250001 17.3125V63.2969C0.249335 65.2606 0.811942 67.1834 1.87108 68.8371C2.93023 70.4907 4.44146 71.8059 6.22551 72.6266C8.00957 73.4472 9.99158 73.739 11.9364 73.4672C13.8813 73.1954 15.7074 72.3715 17.1981 71.0931L34 56.6875L50.8019 71.0875C52.2919 72.3652 54.1169 73.189 56.0608 73.4612C58.0046 73.7334 59.9857 73.4426 61.7694 72.6233C63.553 71.804 65.0644 70.4905 66.1244 68.8385C67.1843 67.1866 67.7485 65.2653 67.75 63.3025V17.3125Z" fill="black"/>
</svg>
